<svg height="60" viewBox="0 0 120 59.999999" width="120" xmlns="http://www.w3.org/2000/svg"><g fill="#8a4182" stroke-width=".019859" transform="matrix(.92871685 0 0 .92871685 2.435639 2.138495)"><path d="m113.94207 30.914386c-.38208-1.402114-1.62046-2.294658-3.05901-2.294658-1.31146 0-2.56772 1.019698-2.84077 2.294658zm1.69334 2.87711c-.76475 1.857233-2.56712 3.113625-4.58832 3.113625-2.84117 0-5.11716-2.221578-5.11716-5.080617 0-2.877109 2.16697-5.18964 5.06215-5.18964 1.3478 0 2.69521.600881 3.64186 1.566107.96553 1.019618 1.36607 2.257919 1.36607 3.641664l-.0729.783103h-7.86657c.29132 1.347662 1.5297 2.330602 2.91365 2.330602.96493 0 1.80236-.363968 2.34887-1.165142h2.31233m-20.029332-4.789292h-1.256452v-2.075816h3.47803v1.383884c.582849-1.074368 1.675269-1.602566 2.876914-1.602566 1.05627 0 2.09408.437206 2.80442 1.201979.8011.892325.81937 1.74819.81937 2.85884v3.805895h1.25645v2.075816h-4.73428v-2.075816h1.25625v-3.150364c0-.60096 0-1.219991-.38248-1.748249-.40054-.52788-1.05607-.782706-1.71161-.782706-.673797 0-1.36567.273056-1.766217.819167-.418817.54611-.418817 1.383884-.418817 2.039673v2.822499h1.256253v2.075816h-4.734283v-2.075816h1.256452v-5.572315m-3.186507-3.004403h-2.221578v-2.34907h2.221578zm0 8.576718h1.256452v2.075816h-4.752751v-2.075816h1.274721v-5.572315h-1.256452v-2.075816h3.47803v7.647932m-20.067085-5.572315h-1.256253v-2.075816h3.277657v1.456726c.619191-1.019678 1.566047-1.69348 2.804229-1.69348 1.347404 0 2.476562.819325 3.022673 2.039475.528238-1.238201 1.839301-2.039475 3.186705-2.039475 1.056277 0 2.094284.436889 2.804228 1.238202.764952.892404.764952 1.857412.764952 2.968062v3.678601h1.256452v2.075817h-4.73468v-2.075817h1.25665v-3.132093c0-.6375 0-1.20198-.291325-1.766559-.364206-.527881-.965325-.801174-1.584118-.801174-.60092 0-1.25665.255063-1.638928.728253-.455357.582949-.455357 1.129218-.455357 1.83948v3.132093h1.256452v2.075817h-4.734482v-2.075817h1.25665v-2.986331c0-.58281 0-1.311123-.291325-1.821011-.309595-.582571-.947055-.892325-1.602586-.892325-.619191 0-1.14723.218603-1.547777.71042-.491897.600781-.528238 1.238043-.528238 1.984685v3.004602h1.256451v2.075816h-4.734283v-2.075816h1.256253v-5.572315m-7.260293 4.826229c.07288.874094.655532 1.456586 1.566047 1.456586.673801 0 1.329134-.473111 1.329134-1.201523 0-.965246-.910317-1.129079-1.656999-1.329352-1.693539-.436968-3.550911-.965246-3.550911-3.095554 0-1.857492 1.566047-2.931721 3.296126-2.931721.873777 0 1.6568.182222 2.203109.873936v-.673643h1.638928v2.640396h-2.148896c-.03634-.69219-.56438-1.147309-1.256253-1.147309-.60092 0-1.238182.345976-1.238182 1.019698 0 .910456.892246 1.11069 1.602388 1.274523 1.747952.400646 3.623594.947154 3.623594 3.132292 0 1.966535-1.656999 3.059014-3.477832 3.059014-.983595 0-1.87584-.309436-2.513102-1.056079v.801095h-1.69334v-2.822498h2.276189m-6.374601-2.093689c0-1.602647-1.329332-2.895579-2.93172-2.895579-1.656999 0-2.931721 1.365893-2.931721 3.004602 0 1.584416 1.329333 2.89538 2.895379 2.89538 1.675071 0 2.968062-1.347444 2.968062-3.004403zm-.03634 3.605323c-.710341 1.074289-1.857372 1.566027-3.132094 1.566027-2.786157 0-4.989267-2.312531-4.989267-5.062347 0-2.822498 2.25792-5.17137 5.09849-5.17137 1.256451 0 2.34907.582571 3.022871 1.638789v-1.383884h3.47803v2.075816h-1.22011v5.572315h1.22011v2.075816h-3.47803v-1.311043m-15.005136-2.348872c.01827.801333.509968 1.620499 1.420483 1.620499.546309 0 .946857-.254825 1.220111-.710023.254785-.455357.254785-1.128999.254785-1.638868v-6.537044h-1.420285v-2.076015h5.298862v2.076015h-1.402015v6.846639c0 1.165519-.07308 2.075816-.892245 3.022872-.728413.837634-1.911983 1.311062-3.041142 1.311062-2.3308 0-4.11549-1.547796-4.02414-3.914918h2.585586"/><g transform="matrix(1.2593529 0 0 1.2593529 -9.665587 -7.780585)"><path d="m24.731175 28.00034h1.802165l.447672-.616311v-4.828016h-2.69739v4.828413l.447533.615933"/><path d="m25.235384 37.415486h.747497v-3.670261h-.747497zm-6.664536-4.876073-.230876-.710957 3.490343-1.133726.230776.710957-3.490144 1.133726m4.503527-5.586613-2.156839-2.969253.604991-.439471 2.156839 2.969452-.604991.439292m5.1531.02723-.604832-.439371 2.157038-2.969452.604991.439272-2.157237 2.96965m4.451696 5.60389-3.490541-1.134341.230936-.711096 3.490342 1.134341-.230757.711096m-5.541335-4.144484.557132 1.714192.72452.235046 4.591699-1.491716-.833465-2.56533-4.592095 1.492173-.44791.615695m.328063 2.42493-1.458215 1.059256.000199.761576 2.83779 3.906181 2.182457-1.58531-2.838386-3.906379zm-2.205691 1.059653-1.457818-1.059653-.724599.235821-2.83779 3.905982 2.18206 1.58527 2.838187-3.906181v-.761219m-1.689051-1.770451.556814-1.713874-.44783-.61641-4.591699-1.491935-.833583 2.565331 4.592493 1.492113.723924-.235284m2.063504-11.788449c-6.415311 0-11.634739 5.218435-11.634739 11.632753 0 6.416701 5.219428 11.636725 11.634739 11.636725 6.414715 0 11.633349-5.220024 11.633349-11.636725 0-6.414318-5.218634-11.632753-11.633349-11.632753zm0 2.355425c5.122915 0 9.277725 4.153023 9.277725 9.277328 0 5.126093-4.15481 9.280903-9.277725 9.280903-5.124901 0-9.278917-4.15481-9.278917-9.280903 0-5.124305 4.154016-9.277328 9.278917-9.277328"/></g></g></svg>