<?xml version="1.0" encoding="utf-8"?>
<!-- Generator: Adobe Illustrator 23.0.1, SVG Export Plug-In . SVG Version: 6.00 Build 0)  -->
<svg version="1.1" id="Calque_1" xmlns="http://www.w3.org/2000/svg" xmlns:xlink="http://www.w3.org/1999/xlink" x="0px" y="0px"
	 viewBox="0 0 420 420" style="enable-background:new 0 0 420 420;" xml:space="preserve">
<style type="text/css">
	.st0{fill:#B81A24;}
	.st1{fill:#E9CB39;}
	.st2{fill:#84298E;}
	.st3{fill:#5172BA;}
	.st4{fill:#311D5F;}
	.st5{fill:#C0D43F;}
</style>
<g>
	<path class="st0" d="M75.9,170.6c9.6-6.9,30.3-15.6,55.3-23.6c-0.3-9.5,1.7-16.6,6.7-20.1c19.7-14,85.5-35.9,139.4-43
		c-1.3-7.2-3.4-13.4-6.6-18.5C248.2,30.2,90,74.6,57.6,97.7c-13.4,9.5-5.5,45,12.3,83.1C70.9,176.3,72.8,172.8,75.9,170.6z"/>
	<path class="st1" d="M397.5,76.7c-5.5-26.9-29.4-36.9-72-36.4c0,0,0.8,10.3-2.4,43.5c8.6,3.1,23.2,7.5,25.5,14.2
		C369,158.8,295,254.6,241.3,335.2c-0.2,5.5,23,14,26.4,11.9C357.1,290.2,415.2,163,397.5,76.7z"/>
	<path class="st2" d="M131.2,147c49.2-15.8,114.8-28.5,144.5-18c3-16.9,3.7-32.4,1.5-45.2c-53.8,7.2-119.7,29-139.4,43
		C132.8,130.4,130.8,137.5,131.2,147z"/>
	<path class="st3" d="M210.4,303.3c-16.5,14.3-27.6,16.7-37.9,17.6c-47.6,4-116.3-82.3-153.2-161.6c-0.4,63.9,91.6,226.3,165,220.2
		c25.3-2.1,62.1-16.9,83.3-32.4C231.2,338,231.3,333.6,210.4,303.3z"/>
	<path class="st4" d="M173.6,293.5c7.1-0.6,10.1-1.8,15.1-6.2c-22.9-31.5-56.5-107.1-57.5-140.2c-24.9,8-45.7,16.7-55.3,23.6
		c-3,2.2-5,5.7-5.9,10.2C95.3,235.2,140.9,296.2,173.6,293.5z"/>
	<path class="st5" d="M369.8,105.2c-13.4-18.9-37.8-22.1-46.5-22.8c-5.8,80.7-39.4,163.9-119,225.6c13.4,20.3,37.9,35.5,56.3,35.5
		C312.9,337.2,396.7,143.2,369.8,105.2z"/>
</g>
</svg>
