<svg viewBox="0 0 144 144" xmlns="http://www.w3.org/2000/svg" xmlns:xlink="http://www.w3.org/1999/xlink"><defs><path id="a" d="m99.1 131.5a6.49 6.49 0 1 1 -13 0v-16.9l-6 3.5v13.5c0 6.9 5.6 12.5 12.5 12.5s12.5-5.6 12.5-12.5v-16.9l-6 3.5z"/></defs><g fill="#071d49"><path d="m12.8 102.6h118.5l-25.3-43.8v-15l7-9.2h-21l-20-34.6-20 34.7h-20.9l7 9.2v15zm25.2-6h-14.9l14.9-25.8zm10.4 0h-4.4v-35.3h4.3v35.3zm0-41.3h-4.4v-4.3h4.3v4.3zm20.6 41.3h-14.7v-35.3h14.7zm20.7 0h-14.7v-35.3h14.7zm0-41.3h-35.4v-4.3h35.3v4.3zm10.3 41.3h-4.3v-35.3h4.3zm0-41.3h-4.3v-4.3h4.3zm6 15.5 14.9 25.8h-14.9zm-34-58.8 13.1 22.7h-26.2zm28.9 28.7-.9 1.2v3.1h-56v-3.2l-.9-1.2h57.8zm37.3 96.6h-13.1v-22.7l-6 3.5v25.2h22.5z"/><use xlink:href="#a"/><use x="-38.9" xlink:href="#a"/><path d="m25.8 114.6h-20l-3.4 6h13.1l-13.1 22.7h21.4l3.5-6h-14.6z"/></g></svg>